<svg width="16" height="16" viewBox="0 0 16 16" fill="none" xmlns="http://www.w3.org/2000/svg">
<path fill-rule="evenodd" clip-rule="evenodd" d="M6.45375 10.5319C3.51223 10.5319 1 10.9765 1 12.7579C1 14.5393 3.49693 15 6.45375 15C9.39604 15 11.9075 14.5546 11.9075 12.774C11.9075 10.9933 9.41134 10.5319 6.45375 10.5319Z" stroke="#04004E" stroke-width="1.5" stroke-linecap="round" stroke-linejoin="round"/>
<path fill-rule="evenodd" clip-rule="evenodd" d="M6.45378 7.99108C8.38444 7.99108 9.94933 6.4262 9.94933 4.49554C9.94933 2.56488 8.38444 1 6.45378 1C4.52389 1 2.95901 2.56488 2.95901 4.49554C2.95212 6.41932 4.50552 7.9842 6.43006 7.99108H6.45378Z" stroke="#04004E" stroke-width="1.5" stroke-linecap="round" stroke-linejoin="round"/>
<path d="M13.5911 5.52951V8.59806" stroke="#04004E" stroke-width="1.5" stroke-linecap="round" stroke-linejoin="round"/>
<path d="M15.1566 7.06371H12.0269" stroke="#04004E" stroke-width="1.5" stroke-linecap="round" stroke-linejoin="round"/>
</svg>
