<svg width="16" height="16" viewBox="0 0 16 16" fill="none" xmlns="http://www.w3.org/2000/svg">
<circle cx="7.99997" cy="8" r="7" stroke="#04004E" stroke-width="1.5" stroke-linecap="round" stroke-linejoin="round"/>
<path d="M13 13L15 15" stroke="#04004E" stroke-width="1.5" stroke-linecap="round" stroke-linejoin="round"/>
<path fill-rule="evenodd" clip-rule="evenodd" d="M8.00641 9.44678C6.32554 9.44678 4.88998 9.70083 4.88998 10.7188C4.88998 11.7368 6.3168 12 8.00641 12C9.68772 12 11.1228 11.7455 11.1228 10.728C11.1228 9.71045 9.69646 9.44678 8.00641 9.44678Z" stroke="#04004E" stroke-width="1.5" stroke-linecap="round" stroke-linejoin="round"/>
<path fill-rule="evenodd" clip-rule="evenodd" d="M8.00643 7.99491C9.10966 7.99491 10.0039 7.10069 10.0039 5.99745C10.0039 4.89422 9.10966 4 8.00643 4C6.90363 4 6.00941 4.89422 6.00941 5.99745C6.00548 7.09675 6.89314 7.99097 7.99287 7.99491H8.00643Z" stroke="#04004E" stroke-width="1.5" stroke-linecap="round" stroke-linejoin="round"/>
</svg>
