<svg width="30" height="30" viewBox="0 0 30 30" fill="none" xmlns="http://www.w3.org/2000/svg">
<g opacity="0.3">
<path d="M7.89159 27.5168C4.91135 27.9356 2.76163 26.0923 2.3432 23.115L1.21411 15.0812C0.79568 12.1039 2.3629 9.73819 5.33428 9.32059L13.8609 8.12225C16.8411 7.7034 18.9919 9.54657 19.4103 12.5239" stroke="#04004E" stroke-width="1.5" stroke-linecap="round" stroke-linejoin="round"/>
<path fill-rule="evenodd" clip-rule="evenodd" d="M13.4802 22.7405C15.8524 22.4071 17.9304 22.4816 18.1322 23.9175C18.334 25.3534 16.372 26.0062 13.9863 26.3415C11.6135 26.675 9.53659 26.6036 9.33469 25.167C9.1328 23.7305 11.0939 23.0759 13.4802 22.7405Z" stroke="#04004E" stroke-width="1.5" stroke-linecap="round" stroke-linejoin="round"/>
<path fill-rule="evenodd" clip-rule="evenodd" d="M13.1922 20.6912C11.6348 20.91 10.1945 19.8253 9.97557 18.2678C9.75669 16.7104 10.8422 15.2706 12.3996 15.0517C13.9564 14.833 15.3967 15.9177 15.6156 17.4752C15.8395 19.026 14.763 20.4645 13.2121 20.6884L13.1922 20.6912Z" stroke="#04004E" stroke-width="1.5" stroke-linecap="round" stroke-linejoin="round"/>
<path d="M17.5209 19.3364C18.5301 19.0471 19.1988 18.0521 19.0504 16.9825C18.9023 15.9285 18.0109 15.162 16.9801 15.1384" stroke="#04004E" stroke-width="1.5" stroke-linecap="round" stroke-linejoin="round"/>
<path d="M19.2271 21.6216C20.2454 21.63 20.9909 21.8819 21.0922 22.6021C21.1618 23.0979 20.8791 23.4655 20.3775 23.7412" stroke="#04004E" stroke-width="1.5" stroke-linecap="round" stroke-linejoin="round"/>
</g>
<path opacity="0.3" d="M11 4.83764C11.7793 1.97318 14.1496 0.429277 17.052 1.19529L25.3808 3.39341C28.2919 4.1617 29.5533 6.66406 28.774 9.52853L26.6713 17.2579C26.4936 17.9111 26.2336 18.4957 25.9035 19" stroke="#04004E" stroke-width="1.5" stroke-linecap="round"/>
</svg>
